<svg id="Gradient" height="512" viewBox="0 0 512 512" width="512" xmlns="http://www.w3.org/2000/svg" xmlns:xlink="http://www.w3.org/1999/xlink"><linearGradient id="linear-gradient" gradientUnits="userSpaceOnUse" x1="256" x2="256" y1="495.687" y2="15.687"><stop offset="0" stop-color="#27bfe4"/><stop offset=".5" stop-color="#c075e7"/><stop offset="1" stop-color="#f0515d"/></linearGradient><path d="m112 191.687h288a8 8 0 0 0 8-8v-96a8 8 0 0 0 -8-8h-8v-24a8 8 0 0 0 -8-8h-80a8 8 0 0 0 -8 8v24h-184a8 8 0 0 0 -8 8v96a8 8 0 0 0 8 8zm200-128h64v16h-64zm-192 32h272v80h-272zm296 400a24.028 24.028 0 0 0 24-24v-448a8 8 0 0 0 -8-8h-352a8 8 0 0 0 -8 8v448a24.028 24.028 0 0 0 24 24zm8-464v176h-336v-176zm-336 440v-248h336v248a8.009 8.009 0 0 1 -8 8h-320a8.009 8.009 0 0 1 -8-8zm40-168h16a24.027 24.027 0 0 0 24-24v-16a24.027 24.027 0 0 0 -24-24h-16a24.027 24.027 0 0 0 -24 24v16a24.027 24.027 0 0 0 24 24zm-8-40a8.009 8.009 0 0 1 8-8h16a8.009 8.009 0 0 1 8 8v16a8.009 8.009 0 0 1 -8 8h-16a8.009 8.009 0 0 1 -8-8zm8 120h16a24.027 24.027 0 0 0 24-24v-16a24.027 24.027 0 0 0 -24-24h-16a24.027 24.027 0 0 0 -24 24v16a24.027 24.027 0 0 0 24 24zm-8-40a8.009 8.009 0 0 1 8-8h16a8.009 8.009 0 0 1 8 8v16a8.009 8.009 0 0 1 -8 8h-16a8.009 8.009 0 0 1 -8-8zm8 120h16a24.027 24.027 0 0 0 24-24v-16a24.027 24.027 0 0 0 -24-24h-16a24.027 24.027 0 0 0 -24 24v16a24.027 24.027 0 0 0 24 24zm-8-40a8.009 8.009 0 0 1 8-8h16a8.009 8.009 0 0 1 8 8v16a8.009 8.009 0 0 1 -8 8h-16a8.009 8.009 0 0 1 -8-8zm88-120h16a24.027 24.027 0 0 0 24-24v-16a24.027 24.027 0 0 0 -24-24h-16a24.027 24.027 0 0 0 -24 24v16a24.027 24.027 0 0 0 24 24zm-8-40a8.009 8.009 0 0 1 8-8h16a8.009 8.009 0 0 1 8 8v16a8.009 8.009 0 0 1 -8 8h-16a8.009 8.009 0 0 1 -8-8zm8 120h16a24.027 24.027 0 0 0 24-24v-16a24.027 24.027 0 0 0 -24-24h-16a24.027 24.027 0 0 0 -24 24v16a24.027 24.027 0 0 0 24 24zm-8-40a8.009 8.009 0 0 1 8-8h16a8.009 8.009 0 0 1 8 8v16a8.009 8.009 0 0 1 -8 8h-16a8.009 8.009 0 0 1 -8-8zm8 120h16a24.027 24.027 0 0 0 24-24v-16a24.027 24.027 0 0 0 -24-24h-16a24.027 24.027 0 0 0 -24 24v16a24.027 24.027 0 0 0 24 24zm-8-40a8.009 8.009 0 0 1 8-8h16a8.009 8.009 0 0 1 8 8v16a8.009 8.009 0 0 1 -8 8h-16a8.009 8.009 0 0 1 -8-8zm88-120h16a24.028 24.028 0 0 0 24-24v-16a24.027 24.027 0 0 0 -24-24h-16a24.027 24.027 0 0 0 -24 24v16a24.028 24.028 0 0 0 24 24zm-8-40a8.009 8.009 0 0 1 8-8h16a8.009 8.009 0 0 1 8 8v16a8.009 8.009 0 0 1 -8 8h-16a8.009 8.009 0 0 1 -8-8zm8 120h16a24.028 24.028 0 0 0 24-24v-16a24.027 24.027 0 0 0 -24-24h-16a24.027 24.027 0 0 0 -24 24v16a24.028 24.028 0 0 0 24 24zm-8-40a8.009 8.009 0 0 1 8-8h16a8.009 8.009 0 0 1 8 8v16a8.009 8.009 0 0 1 -8 8h-16a8.009 8.009 0 0 1 -8-8zm8 120h16a24.028 24.028 0 0 0 24-24v-16a24.027 24.027 0 0 0 -24-24h-16a24.027 24.027 0 0 0 -24 24v16a24.028 24.028 0 0 0 24 24zm-8-40a8.009 8.009 0 0 1 8-8h16a8.009 8.009 0 0 1 8 8v16a8.009 8.009 0 0 1 -8 8h-16a8.009 8.009 0 0 1 -8-8zm88-120h16a24.028 24.028 0 0 0 24-24v-16a24.027 24.027 0 0 0 -24-24h-16a24.027 24.027 0 0 0 -24 24v16a24.028 24.028 0 0 0 24 24zm-8-40a8.009 8.009 0 0 1 8-8h16a8.009 8.009 0 0 1 8 8v16a8.009 8.009 0 0 1 -8 8h-16a8.009 8.009 0 0 1 -8-8zm8 200h16a24.028 24.028 0 0 0 24-24v-96a24.027 24.027 0 0 0 -24-24h-16a24.027 24.027 0 0 0 -24 24v96a24.028 24.028 0 0 0 24 24zm-8-120a8.009 8.009 0 0 1 8-8h16a8.009 8.009 0 0 1 8 8v96a8.009 8.009 0 0 1 -8 8h-16a8.009 8.009 0 0 1 -8-8zm16-192a8 8 0 0 1 -8 8h-16a8 8 0 0 1 0-16h16a8 8 0 0 1 8 8zm-48 0a8 8 0 0 1 -8 8h-16a8 8 0 0 1 0-16h16a8 8 0 0 1 8 8zm-48 0a8 8 0 0 1 -8 8h-16a8 8 0 0 1 0-16h16a8 8 0 0 1 8 8z" fill="url(#linear-gradient)"/></svg>