<svg id="Layer_5" enable-background="new 0 0 64 64" height="512" viewBox="0 0 64 64" width="512" xmlns="http://www.w3.org/2000/svg" xmlns:xlink="http://www.w3.org/1999/xlink"><linearGradient id="SVGID_1_" gradientUnits="userSpaceOnUse" x1="32" x2="32" y1="63" y2="1"><stop offset="0" stop-color="#9f2fff"/><stop offset="1" stop-color="#0bb1d3"/></linearGradient><path d="m24 49c-2.757 0-5 2.243-5 5s2.243 5 5 5 5-2.243 5-5-2.243-5-5-5zm0 8c-1.654 0-3-1.346-3-3s1.346-3 3-3 3 1.346 3 3-1.346 3-3 3zm-14-22c-2.757 0-5 2.243-5 5s2.243 5 5 5 5-2.243 5-5-2.243-5-5-5zm0 8c-1.654 0-3-1.346-3-3s1.346-3 3-3 3 1.346 3 3-1.346 3-3 3zm44-22c-1.654 0-3 1.346-3 3s1.346 3 3 3 3-1.346 3-3-1.346-3-3-3zm0 4c-.552 0-1-.449-1-1s.448-1 1-1 1 .449 1 1-.448 1-1 1zm-8-6c1.654 0 3-1.346 3-3s-1.346-3-3-3-3 1.346-3 3 1.346 3 3 3zm0-4c.552 0 1 .449 1 1s-.448 1-1 1-1-.449-1-1 .448-1 1-1zm-2.707 10.293 12-12 1.414 1.414-12 12zm12.712-23.495-3.004 2-3.006-2-2.998 2-2.999-2-2.998 2-4-2.667v9.495l-3.793 1.626-7.021 19.434-9.513 2.296c-1.648-1.826-4.025-2.982-6.673-2.982-4.963 0-9 4.038-9 9s4.037 9 9 9c3.646 0 6.786-2.183 8.199-5.308l4.035-1.065-1.018 2.819c-3.603 1.176-6.216 4.564-6.216 8.554 0 4.962 4.037 9 9 9s9-4.038 9-9c0-2.383-.938-4.547-2.455-6.159l2.683-8.116 3.772-.995v8.139l4-2.667 3.004 2 3-2 2.999 2 2.998-2 2.995 2 3-2 4.004 2.665v-45.737l-3.995 2.668zm-46.005 45.202c-3.859 0-7-3.14-7-7s3.141-7 7-7 7 3.14 7 7-3.141 7-7 7zm8.873-5.554c.077-.472.127-.953.127-1.446 0-1.541-.391-2.993-1.076-4.262l7.448-1.798-2.312 6.401zm15.92-27.698 5.726-2.454-11.623 35.164c-1.411-.919-3.09-1.458-4.896-1.458-.171 0-.338.016-.506.026zm-10.793 47.252c-3.859 0-7-3.14-7-7s3.141-7 7-7 7 3.14 7 7-3.141 7-7 7zm9.976-23.54 3.024-9.148v8.349zm27.024 5.673-2.004-1.334-3 2-2.995-2-2.998 2-2.999-2-3 2-3.004-2-2 1.333v-20.87l4.384-13.262h-2.589l-1.795.769v-4.9l2 1.333 2.998-2 2.999 2 3-2 3.004 2 3.004-2 3 2 1.995-1.332zm-45-24.133v-2c0-1.103-.897-2-2-2-2.206 0-4-1.794-4-4v-4h3v-2h2v2.142c1.721.447 3 2 3 3.858h-2c0-1.103-.897-2-2-2h-2v2c0 1.103.897 2 2 2 2.206 0 4 1.794 4 4v4h-3v2h-2v-2.142c-1.721-.447-3-2-3-3.858h2c0 1.103.897 2 2 2zm-2 8c7.168 0 13-5.832 13-13s-5.832-13-13-13-13 5.832-13 13 5.832 13 13 13zm0-24c6.065 0 11 4.935 11 11s-4.935 11-11 11-11-4.935-11-11 4.935-11 11-11zm29 34h10v2h-10zm12 0h2v2h-2zm-12-4h14v2h-14zm0-4h14v2h-14zm-13.586 10.658-1.857-.743.743-1.857 1.857.743zm1.485-3.714-1.857-.743.743-1.857 1.857.743zm-2.97 7.428-1.857-.743.743-1.857 1.857.743z" fill="url(#SVGID_1_)"/></svg>