<svg id="Layer_3" enable-background="new 0 0 64 64" height="512" viewBox="0 0 64 64" width="512" xmlns="http://www.w3.org/2000/svg" xmlns:xlink="http://www.w3.org/1999/xlink"><linearGradient id="SVGID_1_" gradientUnits="userSpaceOnUse" x1="32" x2="32" y1="63" y2="1"><stop offset="0" stop-color="#9f2fff"/><stop offset="1" stop-color="#0bb1d3"/></linearGradient><path d="m20.124 48.868c-.698.088-1.413.132-2.124.132v-2c.628 0 1.259-.039 1.876-.116zm14.578-13.681-1.965-.373c-1.076 5.675-5.389 10.273-10.986 11.714l.499 1.938c6.344-1.635 11.231-6.847 12.452-13.279zm-16.702-20.187c-.711 0-1.426.044-2.124.132l.248 1.984c.617-.077 1.248-.116 1.876-.116zm-3.75 2.473-.499-1.938c-7.508 1.933-12.751 8.703-12.751 16.465h2c0-6.849 4.626-12.822 11.25-14.527zm42.164-16.473 6.586 6.586v11.414h-16v-8h-3c-.551 0-1 .448-1 1v19h4v-8h9.414l6.586 6.586v11.414h-16v-8h-4v19c0 .552.449 1 1 1h3v-8h9.414l6.586 6.586v11.414h-16v-8h-3c-1.654 0-3-1.346-3-3v-19h-10.051c-.514 6.701-6.118 12-12.949 12-7.168 0-13-5.832-13-13s5.832-13 13-13c6.831 0 12.435 5.299 12.949 12h10.051v-19c0-1.654 1.346-3 3-3h3v-8zm-27.414 31c0-6.065-4.935-11-11-11s-11 4.935-11 11 4.935 11 11 11 11-4.935 11-11zm28 19h2.586l-2.586-2.586zm-8 10h12v-8h-6v-6h-6zm8-32h2.586l-2.586-2.586zm-8 10h12v-8h-6v-6h-6zm8-32h2.586l-2.586-2.586zm4 10v-8h-6v-6h-6v14zm-8-12h-2v2h2zm0 4h-2v2h2zm-2 6h7v-2h-7zm2 12h-2v2h2zm0 4h-2v2h2zm-2 6h8v-2h-8zm2 12h-2v2h2zm0 4h-2v2h2zm-2 6h8v-2h-8zm-37-26h12v-2h-12zm-2-2h-2v2h2zm12 6h2v-2h-2zm-14 0h12v-2h-12zm0-8h16v-2h-16z" fill="url(#SVGID_1_)"/></svg>