<svg id="Layer_3" enable-background="new 0 0 64 64" height="512" viewBox="0 0 64 64" width="512" xmlns="http://www.w3.org/2000/svg" xmlns:xlink="http://www.w3.org/1999/xlink"><linearGradient id="SVGID_1_" gradientUnits="userSpaceOnUse" x1="32" x2="32" y1="63" y2="1"><stop offset="0" stop-color="#9f2fff"/><stop offset="1" stop-color="#0bb1d3"/></linearGradient><path d="m26.152 18.553 1.658 1.119-4.646 6.888-1.658-1.119zm-5.994 8.888-1.407 2.087 1.658 1.117 1.407-2.087zm-1.023 5.095-1.658-1.119-1.383 2.05 1.658 1.119zm13.865-14.536h-2v2h2zm0 4h-2v2h2zm-2-10h2v-2h-2zm2 14h-2v2h2zm0-12h-2v2h2zm0 16h-2v2h2zm0 4h-2v2h2zm-4.51 3.37.764 1.848 1.849-.765-.764-1.848zm-3.696 1.529.766 1.848 1.848-.765-.766-1.848zm-7.393 3.06.766 1.848 1.848-.766-.766-1.848zm-3.695 1.529.764 1.848 1.849-.765-.764-1.848zm7.392-3.059.766 1.848 1.848-.765-.766-1.848zm-11.088 4.589.766 1.848 1.848-.765-.766-1.848zm-3.697 1.529.766 1.848 1.848-.765-.766-1.848zm32.893-7.648-1.848-.765-.766 1.848 1.848.765zm11.088 4.589-1.849-.765-.764 1.848 1.849.765zm7.393 3.059-1.848-.765-.766 1.848 1.848.765zm-3.697-1.529-1.848-.765-.766 1.848 1.848.765zm-7.391-3.059-1.848-.766-.766 1.848 1.848.766zm-11.853-2.741.764-1.848-1.849-.765-.764 1.848zm8.156 1.211-1.848-.765-.766 1.848 1.848.765zm2.684-39.429h17.414v2h-16.586l-8.382 8.382 2.605 3.682 1.03-.904 2.091 1.255.601-2.415h7.562l.603 2.416 2.136-1.281 5.348 5.346-1.282 2.136 2.415.603v7.562l-2.415.603 1.282 2.136-4.116 4.114 6.506 9.199c.394.556.602 1.21.602 1.89 0 1.806-1.47 3.276-3.276 3.276h-25.31l10 10h14.586v2h-15.414l-12-12h-27.31c-1.806 0-3.276-1.47-3.276-3.276 0-.68.208-1.334.601-1.891l18.568-26.251-4.583-4.582h-14.586v-2h15.414l4.926 4.926 8.266-11.687c.55-.776 1.445-1.239 2.394-1.239s1.844.463 2.394 1.238l2.467 3.487zm15.179 45.985-28.004-39.591c-.175-.247-.459-.394-.761-.394s-.586.147-.761.395l-28.005 39.591c-.153.218-.234.473-.234.738 0 .064.027.118.036.179l1.429-.591.699 1.688h53.671l.7-1.688 1.429.591c.009-.061.036-.116.036-.179 0-.265-.081-.52-.235-.739zm-7.624-20.985c0-2.757-2.243-5-5-5-.98 0-1.906.296-2.719.83l5.754 8.136c1.225-.941 1.965-2.407 1.965-3.966zm-11.343-9.293 2.472 3.494c1.152-.773 2.473-1.201 3.871-1.201 3.859 0 7 3.141 7 7 0 2.209-1.062 4.282-2.812 5.595l2.392 3.382 2.768-2.768-1.297-2.159.504-1.22 2.445-.611v-4.438l-2.445-.611-.504-1.22 1.297-2.159-3.139-3.139-2.156 1.295-1.143-.462-.205-.536-.487-1.949h-4.438l-.612 2.452-1.219.496-2.202-1.321zm8.202-9.707h13v-2h-13zm11 4h2v-2h-2zm-11 0h9v-2h-9zm-39 6h-10v2h10zm4 0h-2v2h2zm0 4h-14v2h14zm44 36h-2v2h2zm-14 2h10v-2h-10zm14-6h-14v2h14z" fill="url(#SVGID_1_)"/></svg>